<svg xmlns="http://www.w3.org/2000/svg" xmlns:xlink="http://www.w3.org/1999/xlink" version="1.1" id="Layer_1" x="0px" y="0px" width="63.469px" height="100px" viewBox="0 0 63.469 100" enable-background="new 0 0 63.469 100" xml:space="preserve">
<polygon fill="#000000" points="8.333,11.95 5.188,11.95 0,94.971 11.636,100 "/>
<path fill="#000000" d="M58.125,16.354l-10.961-1.37V7.484l-3.918-4.99L26.316,0l-3.921,3.742v8.145l-0.681-0.085V3.27l2.312-2.205  l-1.17-0.173l-3.92,3.742v6.821l-9.869-1.234L12.369,100l51.1-7.861L58.125,16.354z M42.824,7.854l-0.125-0.165L26.856,5.414v1.278  l13.246,1.901l0.112,5.521l-13.898-1.737V4.574l17.074,2.394l0.158,7.563l-0.592-0.074L42.824,7.854z"/>
</svg>