<?xml version="1.0" encoding="utf-8"?>
<!-- Generator: Adobe Illustrator 14.0.0, SVG Export Plug-In . SVG Version: 6.00 Build 43363)  -->
<!DOCTYPE svg PUBLIC "-//W3C//DTD SVG 1.0//EN" "http://www.w3.org/TR/2001/REC-SVG-20010904/DTD/svg10.dtd">
<svg version="1.0" id="Layer_1" xmlns="http://www.w3.org/2000/svg" xmlns:xlink="http://www.w3.org/1999/xlink" x="0px" y="0px"
	 width="70.312px" height="100px" viewBox="0 0 70.312 100" enable-background="new 0 0 70.312 100" xml:space="preserve">
<path d="M15.42,24.624c6.365,0,11.53-5.511,11.53-12.308C26.95,5.513,21.785,0,15.42,0C9.054,0,3.892,5.513,3.892,12.316
	C3.892,19.113,9.054,24.624,15.42,24.624z"/>
<path d="M51.971,73.88c1.019-2.722-1.022-20.681-1.022-20.681L38.213,31.435l5.096-2.177l9.681,14.148l7.132-5.442L51.459,20.55
	l-22.927-1.085c-1.528,2.721-11.209,8.16-13.247,8.707c-2.038,0.545-1.021,17.413-1.021,17.413L0,46.131l1.019,11.423l23.946-2.178
	l2.55-8.706c0,0,3.566,8.165,4.583,9.796c1.019,1.632-1.017,3.809-1.017,3.809l-13.758,8.706L18.341,100h10.191l2.038-23.942
	l11.72-8.162l-1.022,16.868h27.517l1.528-11.428C67.255,68.436,50.948,76.602,51.971,73.88z"/>
</svg>
